HIERARCHY
ROOT Hips
{
	OFFSET 0.000000 0.000000 0.000000 
	CHANNELS 6 Xposition Yposition Zposition Zrotation Xrotation Yrotation
	JOINT Spine
	{
		OFFSET -0.000000 8.285670 0.000000 
		CHANNELS 3 Zrotation Xrotation Yrotation
		JOINT Spine1
		{
			OFFSET 0.000611 19.343710 -0.000411 
			CHANNELS 3 Zrotation Xrotation Yrotation
			JOINT Neck
			{
				OFFSET -0.000000 22.301800 0.000000 
				CHANNELS 3 Zrotation Xrotation Yrotation
				JOINT Head
				{
					OFFSET -0.000212 13.431406 1.733011 
					CHANNELS 3 Zrotation Xrotation Yrotation
					End Site
					{
						OFFSET -0.000000 20.208887 0.000000 
					}
				}
			}
			JOINT LeftShoulder
			{
				OFFSET 3.887530 15.503099 -0.416373 
				CHANNELS 3 Zrotation Xrotation Yrotation
				JOINT LeftArm
				{
					OFFSET 20.767099 0.000000 0.000000 
					CHANNELS 3 Zrotation Xrotation Yrotation
					JOINT LeftForeArm
					{
						OFFSET 26.608500 0.000000 0.000000 
						CHANNELS 3 Zrotation Xrotation Yrotation
						JOINT LeftHand
						{
							OFFSET 21.738852 -0.000256 0.000002 
							CHANNELS 3 Zrotation Xrotation Yrotation
							End Site
							{
								OFFSET 15.156667 0.000000 0.000000 
							}
						}
					}
				}
			}
			JOINT RightShoulder
			{
				OFFSET -4.190880 15.503099 -0.416373 
				CHANNELS 3 Zrotation Xrotation Yrotation
				JOINT RightArm
				{
					OFFSET -20.767099 0.000000 0.000000 
					CHANNELS 3 Zrotation Xrotation Yrotation
					JOINT RightForeArm
					{
						OFFSET -26.608500 0.000000 0.000000 
						CHANNELS 3 Zrotation Xrotation Yrotation
						JOINT RightHand
						{
							OFFSET -23.120808 -0.000513 -0.000119 
							CHANNELS 3 Zrotation Xrotation Yrotation
							End Site
							{
								OFFSET -15.156667 0.000000 0.000000 
							}
						}
					}
				}
			}
		}
	}
	JOINT LeftUpLeg
	{
		OFFSET 10.104500 0.000000 0.000000 
		CHANNELS 3 Zrotation Xrotation Yrotation
		JOINT LeftLeg
		{
			OFFSET -0.000000 -50.743301 0.000000 
			CHANNELS 3 Zrotation Xrotation Yrotation
			JOINT LeftFoot
			{
				OFFSET -0.000000 -35.579197 0.000000 
				CHANNELS 3 Zrotation Xrotation Yrotation
				JOINT LeftToeBase
				{
					OFFSET -0.000000 -6.567910 15.156700 
					CHANNELS 3 Zrotation Xrotation Yrotation
					End Site
					{
						OFFSET -0.000000 0.000000 4.041778 
					}
				}
			}
		}
	}
	JOINT RightUpLeg
	{
		OFFSET -10.104500 0.000000 0.000000 
		CHANNELS 3 Zrotation Xrotation Yrotation
		JOINT RightLeg
		{
			OFFSET -0.000000 -50.743301 0.000000 
			CHANNELS 3 Zrotation Xrotation Yrotation
			JOINT RightFoot
			{
				OFFSET -0.006622 -35.254826 -0.036579 
				CHANNELS 3 Zrotation Xrotation Yrotation
				JOINT RightToeBase
				{
					OFFSET -0.000000 -6.567910 15.156700 
					CHANNELS 3 Zrotation Xrotation Yrotation
					End Site
					{
						OFFSET -0.000000 0.000000 4.041778 
					}
				}
			}
		}
	}
}
MOTION
Frames: 12
Frame Time: 0.010000
0.000000 93.205856 0.000000 -2.820133 11.056035 2.246371 -2.316593 -7.941247 -4.087027 9.267098 5.631632 -1.767468 2.108805 -4.088903 -1.727739 -9.580290 6.502334 0.190485 -3.255518 4.751208 1.817927 -77.925674 25.047825 -13.396513 7.672369 -0.075602 -11.508515 -20.641600 0.720708 -0.114584 -10.913545 3.807091 -5.148435 76.377762 34.515343 16.242012 -5.659934 -2.367736 23.266642 8.337542 -1.492417 -3.998660 6.522707 -15.434140 -2.067713 2.153651 22.752897 2.569471 -5.604676 -24.354416 10.105314 0.000000 0.000000 0.000000 -4.179707 -10.090295 -14.454304 6.677571 14.142679 -4.959267 3.119953 -27.594690 1.235671 0.000000 0.000000 0.000000 
0.001359 93.204559 -0.004749 -2.824696 11.065624 2.261003 -2.309546 -7.937525 -4.097410 9.267383 5.618763 -1.770057 2.105888 -4.089749 -1.727257 -9.579168 6.502984 0.190548 -3.251735 4.759665 1.807027 -77.934067 25.042749 -13.398190 7.678912 -0.081015 -11.506092 -20.635250 0.713431 -0.101614 -10.911990 3.797259 -5.148665 76.375923 34.509087 16.240446 -5.658003 -2.359665 23.269127 8.342379 -1.485373 -4.006524 6.522439 -15.453835 -2.077842 2.147942 22.753439 2.570226 -5.602069 -24.355640 10.088152 0.000000 0.000000 0.000000 -4.178123 -10.105562 -14.466409 6.674785 14.151544 -4.981833 3.132743 -27.597750 1.250921 0.000000 0.000000 0.000000 
0.002693 93.203270 -0.009444 -2.829206 11.075041 2.275494 -2.302587 -7.933826 -4.107638 9.267740 5.606083 -1.772636 2.102800 -4.090487 -1.726762 -9.577796 6.503538 0.190544 -3.247915 4.768011 1.796243 -77.942451 25.037712 -13.399891 7.685290 -0.086225 -11.503656 -20.629021 0.706285 -0.089017 -10.910714 3.787487 -5.148866 76.374344 34.502842 16.238844 -5.655980 -2.351607 23.271564 8.347124 -1.478327 -4.014301 6.522207 -15.473253 -2.087923 2.142126 22.753973 2.571007 -5.599362 -24.356949 10.071507 0.000000 0.000000 0.000000 -4.176504 -10.120636 -14.478386 6.671946 14.160258 -5.004426 3.145596 -27.600649 1.266260 0.000000 0.000000 0.000000 
0.003971 93.202034 -0.014004 -2.833689 11.084134 2.289620 -2.295747 -7.930046 -4.117564 9.268111 5.593566 -1.775137 2.099974 -4.091306 -1.726290 -9.576591 6.504323 0.190548 -3.244303 4.776168 1.785634 -77.950462 25.032784 -13.401575 7.691497 -0.091318 -11.501247 -20.623201 0.699568 -0.077038 -10.909253 3.777988 -5.148973 76.372513 34.496849 16.237394 -5.654058 -2.343816 23.273949 8.351858 -1.471483 -4.021964 6.522051 -15.492076 -2.097635 2.136493 22.754417 2.571754 -5.596972 -24.358274 10.055375 0.000000 0.000000 0.000000 -4.174876 -10.135268 -14.489950 6.669312 14.168721 -5.026629 3.158042 -27.603359 1.281122 0.000000 0.000000 0.000000 
0.005181 93.200821 -0.018381 -2.838002 11.092802 2.302989 -2.289179 -7.926066 -4.127086 9.268568 5.581346 -1.777544 2.097304 -4.091978 -1.725898 -9.575453 6.504937 0.190559 -3.240697 4.783996 1.775360 -77.958260 25.028009 -13.403277 7.697471 -0.095996 -11.498938 -20.617983 0.693336 -0.065949 -10.908060 3.768731 -5.148942 76.370934 34.491314 16.236031 -5.652352 -2.336327 23.276093 8.356617 -1.464939 -4.029329 6.521912 -15.510035 -2.106976 2.131093 22.754761 2.572454 -5.594891 -24.359634 10.040123 0.000000 0.000000 0.000000 -4.173193 -10.149268 -14.501187 6.666562 14.176899 -5.048717 3.170687 -27.605968 1.296233 0.000000 0.000000 0.000000 
0.006290 93.199669 -0.022517 -2.842196 11.100882 2.315806 -2.282857 -7.921841 -4.136140 9.269073 5.569427 -1.779764 2.094921 -4.092874 -1.725533 -9.574428 6.506053 0.190561 -3.237266 4.791328 1.765481 -77.965576 25.023441 -13.404819 7.702967 -0.100225 -11.496862 -20.613266 0.687685 -0.055905 -10.906852 3.759849 -5.148848 76.369263 34.485981 16.234795 -5.650484 -2.328978 23.278267 8.361258 -1.458583 -4.036538 6.521948 -15.526964 -2.115841 2.125777 22.755051 2.573150 -5.593080 -24.361187 10.026044 0.000000 0.000000 0.000000 -4.171385 -10.162488 -14.511864 6.663818 14.184630 -5.070518 3.183203 -27.608334 1.311208 0.000000 0.000000 0.000000 
0.007295 93.198601 -0.026411 -2.846281 11.108357 2.328243 -2.276999 -7.917361 -4.144682 9.269930 5.557846 -1.781837 2.092610 -4.093710 -1.725237 -9.573411 6.507256 0.190566 -3.234288 4.798191 1.756145 -77.972313 25.019142 -13.406362 7.708046 -0.103935 -11.494826 -20.609221 0.682673 -0.047154 -10.905828 3.751486 -5.148523 76.367577 34.481094 16.233751 -5.648757 -2.322022 23.280258 8.365818 -1.452544 -4.043445 6.522165 -15.542722 -2.124323 2.120334 22.755247 2.573885 -5.591370 -24.362818 10.013591 0.000000 0.000000 0.000000 -4.169507 -10.174827 -14.521953 6.661135 14.191836 -5.091778 3.195448 -27.610321 1.325888 0.000000 0.000000 0.000000 
0.008192 93.197594 -0.030040 -2.850127 11.115243 2.339499 -2.271495 -7.912730 -4.152514 9.270743 5.546719 -1.783769 2.090848 -4.094518 -1.724993 -9.572662 6.508622 0.190590 -3.231247 4.804525 1.747229 -77.978638 25.014997 -13.407827 7.712554 -0.107100 -11.493126 -20.605927 0.678423 -0.039642 -10.904953 3.743556 -5.147998 76.366135 34.476772 16.232813 -5.647220 -2.315521 23.281982 8.370465 -1.446874 -4.049916 6.522428 -15.557261 -2.132143 2.115323 22.755293 2.574538 -5.590334 -24.364611 10.002490 0.000000 0.000000 0.000000 -4.167542 -10.186295 -14.531446 6.658444 14.198463 -5.112646 3.207601 -27.612019 1.340480 0.000000 0.000000 0.000000 
0.008971 93.196678 -0.033366 -2.853811 11.121376 2.350048 -2.266373 -7.907742 -4.159756 9.271799 5.535968 -1.785501 2.089100 -4.095603 -1.724776 -9.571869 6.510499 0.190631 -3.228690 4.810182 1.739015 -77.984215 25.011353 -13.409174 7.716644 -0.109811 -11.491613 -20.603628 0.674917 -0.033489 -10.904177 3.736113 -5.147436 76.364601 34.473034 16.232050 -5.645771 -2.309339 23.283569 8.375146 -1.441520 -4.056080 6.522858 -15.570427 -2.139410 2.110451 22.755241 2.575178 -5.589714 -24.366621 9.992989 0.000000 0.000000 0.000000 -4.165507 -10.196673 -14.540267 6.655851 14.204432 -5.132752 3.219330 -27.613356 1.354590 0.000000 0.000000 0.000000 
0.009634 93.195839 -0.036420 -2.857300 11.126817 2.359659 -2.261662 -7.902457 -4.166376 9.272974 5.525578 -1.787069 2.087792 -4.096354 -1.724640 -9.571362 6.512303 0.190716 -3.226410 4.815374 1.731324 -77.989174 25.007780 -13.410583 7.720175 -0.111973 -11.490210 -20.602108 0.672231 -0.028715 -10.903507 3.729310 -5.146477 76.363083 34.469906 16.231438 -5.644576 -2.303684 23.284882 8.379936 -1.436679 -4.061794 6.523421 -15.582275 -2.146164 2.105821 22.755054 2.575779 -5.589805 -24.368773 9.984997 0.000000 0.000000 0.000000 -4.163390 -10.205990 -14.548457 6.653359 14.209603 -5.152006 3.230572 -27.614267 1.368143 0.000000 0.000000 0.000000 
0.010196 93.195091 -0.039208 -2.860576 11.131722 2.368531 -2.257210 -7.896849 -4.172330 9.274104 5.515438 -1.788424 2.086671 -4.097449 -1.724516 -9.570799 6.514809 0.190793 -3.224336 4.819831 1.724263 -77.993507 25.004631 -13.411758 7.723204 -0.113607 -11.489134 -20.601482 0.670158 -0.025189 -10.902954 3.723024 -5.145468 76.361664 34.467251 16.230871 -5.643383 -2.298289 23.286158 8.384857 -1.432065 -4.067250 6.524038 -15.592916 -2.152295 2.101540 22.754725 2.576318 -5.590601 -24.371048 9.978585 0.000000 0.000000 0.000000 -4.161200 -10.214372 -14.556133 6.655292 14.236917 -5.171564 3.237313 -27.643900 1.373744 0.000000 0.000000 0.000000 
0.010661 93.194443 -0.041747 -2.863683 11.135990 2.376535 -2.253117 -7.890939 -4.177747 9.275394 5.505577 -1.789630 2.085718 -4.098285 -1.724380 -9.570402 6.517287 0.190923 -3.222641 4.823738 1.717800 -77.997147 25.001785 -13.412864 7.725735 -0.114848 -11.488274 -20.601654 0.668655 -0.022817 -10.902678 3.717415 -5.144143 76.360336 34.465057 16.230495 -5.642253 -2.293260 23.287214 8.389929 -1.427759 -4.072313 6.524824 -15.602359 -2.158103 2.097262 22.754322 2.576875 -5.591916 -24.373539 9.973821 0.000000 0.000000 0.000000 -4.158994 -10.221725 -14.563220 6.652956 14.240433 -5.188814 3.247463 -27.643927 1.386051 0.000000 0.000000 0.000000 
